<svg width="25" height="26" viewBox="0 0 25 26" fill="none" xmlns="http://www.w3.org/2000/svg">
<path d="M10.0131 25.5155C4.44426 24.3243 0.345982 19.5914 0.0228663 13.9782C-0.0927873 11.9688 0.229871 10.0939 1.00006 8.30022C1.65208 6.78172 2.46318 5.59485 3.68152 4.37652C5.6899 2.36813 8.03779 1.19829 10.8811 0.789304C11.5866 0.68782 13.2846 0.67429 13.961 0.764775C15.6178 0.986395 17.0995 1.46297 18.4865 2.22039C19.5617 2.80751 20.3815 3.42949 21.3286 4.37653C23.3392 6.38711 24.5087 8.73462 24.9154 11.5761C25.0392 12.4413 25.0251 14.1029 24.8863 15.02C24.4029 18.2111 22.7884 21.02 20.2888 23.019C18.6503 24.3293 16.4266 25.2888 14.311 25.5982L14.073 25.6329V20.8174V16.0018L15.5413 15.9871L17.0096 15.9723L17.2186 14.4044C17.3336 13.542 17.4288 12.7671 17.4303 12.6824L17.4329 12.5284H15.7756H14.1184L14.14 11.2265C14.1577 10.1378 14.1774 9.88794 14.2598 9.70129C14.3851 9.41764 14.5465 9.24515 14.829 9.09309C15.0345 8.98252 15.1596 8.97023 16.341 8.94455L17.6289 8.91654L17.6437 7.33816L17.6584 5.75977L17.3915 5.71734C17.2448 5.69402 16.4569 5.6744 15.6407 5.67375C14.2804 5.67272 14.1195 5.68286 13.7088 5.79628C12.1718 6.22071 11.17 7.22358 10.7597 8.74854C10.652 9.14884 10.6366 9.3798 10.6146 10.9185L10.5901 12.6404H9.1116H7.63306V14.376V16.112H9.11701H10.601V20.8718C10.601 23.4897 10.5821 25.6298 10.559 25.6275C10.5359 25.6252 10.2903 25.5748 10.0131 25.5155Z" fill="#F7F7F7"/>
</svg>
