<svg width="25" height="26" viewBox="0 0 25 26" fill="none" xmlns="http://www.w3.org/2000/svg">
<path d="M9.36933 25.655C8.18392 25.6355 6.97157 25.5937 6.67521 25.5621C4.69104 25.3506 3.27555 24.7337 2.11793 23.5761C0.981398 22.4395 0.349527 21.0164 0.137968 19.1168C-0.0455289 17.4691 -0.0461393 9.08626 0.137042 7.28711C0.251367 6.16464 0.499388 5.26947 0.944556 4.37256C1.2737 3.70941 1.58862 3.28166 2.17609 2.69976C3.28317 1.60318 4.72964 0.976962 6.62617 0.773201C7.99482 0.626155 16.9987 0.624212 18.3578 0.770669C20.3279 0.982965 21.7591 1.5941 22.8927 2.7071C24.073 3.86591 24.7024 5.29482 24.9319 7.33609C25.0229 8.14638 25.0226 17.9608 24.9315 18.8718C24.702 21.1659 23.9243 22.7929 22.4902 23.9793C21.2244 25.0264 19.8191 25.4922 17.5917 25.6031C16.24 25.6703 11.9491 25.6974 9.36933 25.655ZM18.2844 23.358C20.5086 23.0738 21.8679 22.0503 22.443 20.2265C22.764 19.2086 22.8136 18.2629 22.8136 13.1652C22.8136 9.08414 22.7765 7.76504 22.6387 6.94422C22.5347 6.32442 22.2956 5.6234 22.029 5.15617C21.7749 4.71093 21.1656 4.06396 20.7393 3.78678C20.1894 3.42921 19.3353 3.14228 18.4804 3.02794C17.7537 2.93076 15.7545 2.88092 12.5533 2.8802C7.0586 2.87896 5.99867 2.96892 4.81382 3.53713C4.29108 3.78781 4.14577 3.89262 3.67138 4.36117C2.8915 5.13145 2.49984 6.08991 2.33562 7.63C2.30202 7.94527 2.27131 9.75159 2.25632 12.297C2.23111 16.5802 2.2731 18.457 2.4135 19.316C2.60109 20.464 2.95748 21.257 3.58689 21.9272C4.46049 22.8573 5.61045 23.2956 7.45505 23.4016C8.52066 23.4628 17.7548 23.4254 18.2844 23.358ZM11.5491 19.5068C9.26153 19.1451 7.32953 17.5765 6.51882 15.4226C5.92889 13.8553 5.99743 11.9824 6.69955 10.4841C7.82232 8.08816 10.2608 6.61946 12.8717 6.76656C14.6637 6.86752 16.2748 7.67033 17.419 9.03235C19.4394 11.4376 19.451 14.8279 17.447 17.2723C16.0478 18.9791 13.7405 19.8533 11.5491 19.5068ZM13.582 17.2314C15.0356 16.861 16.2116 15.6775 16.6002 14.1939C16.8142 13.3765 16.7237 12.2611 16.3801 11.4843C15.9698 10.5565 15.1762 9.7528 14.2602 9.33747C13.4549 8.97232 12.3399 8.87389 11.5001 9.09382C10.0185 9.48185 8.8535 10.6374 8.45716 12.112C8.3075 12.6689 8.3077 13.6629 8.45754 14.2184C8.8992 15.855 10.2446 17.0709 11.8939 17.3239C12.3382 17.392 13.1192 17.3492 13.582 17.2314ZM18.9566 7.92073C17.6877 7.67147 17.3226 6.03435 18.3672 5.27766C18.7758 4.98166 19.3372 4.9159 19.8011 5.10971C20.0589 5.2174 20.4359 5.5855 20.567 5.85729C20.7368 6.20966 20.7285 6.73243 20.5473 7.10168C20.2551 7.69676 19.5816 8.0435 18.9566 7.92073Z" fill="#F7F7F7"/>
</svg>
