<svg width="25" height="26" viewBox="0 0 25 26" fill="none" xmlns="http://www.w3.org/2000/svg">
<path d="M2.17674 25.6426C1.21055 25.516 0.384306 24.8043 0.0868158 23.8423C0.0048378 23.5772 0 22.9831 0 13.1653C0 3.34742 0.00491339 2.75339 0.0868158 2.48827C0.339931 1.66985 1.00456 1.0052 1.82298 0.75211C2.08812 0.670132 2.68213 0.665283 12.5 0.665283C22.3179 0.665283 22.9119 0.670045 23.177 0.75211C23.9954 1.0052 24.6601 1.66985 24.9132 2.48827C24.9951 2.75339 25 3.34742 25 13.1653C25 22.9831 24.9951 23.5772 24.9132 23.8423C24.6644 24.6469 24.0219 25.2988 23.2033 25.5773C22.9585 25.6606 22.4168 25.6655 12.6957 25.6715C7.05846 25.675 2.32493 25.662 2.17674 25.6426ZM7.50978 16.2958V10.6201L5.61399 10.6328L3.7182 10.6456L3.70573 16.2473C3.69855 19.3283 3.70362 21.8766 3.71631 21.9102C3.73445 21.9577 4.16166 21.9714 5.6247 21.9714H7.50979L7.50978 16.2958ZM13.772 18.5572C13.772 14.7422 13.7679 14.7928 14.1077 14.294C14.8667 13.1793 16.3955 13.1793 17.1545 14.294C17.4942 14.7928 17.4902 14.7422 17.4902 18.5577V21.9727L19.386 21.96L21.2818 21.9472L21.2961 18.4736C21.3105 14.9443 21.284 14.1754 21.1302 13.6509C20.5673 11.7332 18.8471 10.406 16.9275 10.4084C15.896 10.4097 14.8261 10.9038 14.0714 11.7274L13.7719 12.0543V11.3373V10.6202L11.8761 10.633L9.98033 10.6457L9.96785 16.2475C9.96067 19.3284 9.96574 21.8767 9.97844 21.9104C9.99658 21.9578 10.4238 21.9715 11.8868 21.9715H13.7719L13.772 18.5572ZM6.30107 8.4357C7.67145 8.002 8.27987 6.43056 7.57724 5.13959C7.3208 4.6684 6.75425 4.23285 6.21526 4.09249C5.41536 3.8842 4.58625 4.10474 4.0128 4.67809C3.43936 5.25154 3.21891 6.08065 3.4272 6.88055C3.74457 8.09925 5.08028 8.82206 6.30107 8.4357Z" fill="#F7F7F7"/>
</svg>
