<svg width="25" height="26" viewBox="0 0 25 26" fill="none" xmlns="http://www.w3.org/2000/svg">
<path d="M12.0832 25.6694C11.2062 25.6358 9.90141 25.4383 9.23164 25.2377L8.97576 25.1612L9.17797 24.832C9.47995 24.3407 9.98739 23.2793 10.12 22.8621C10.1843 22.6601 10.4303 21.7375 10.6668 20.8118L11.0967 19.1288L11.1942 19.269C11.5102 19.7232 12.2173 20.2078 12.8912 20.4321C13.8151 20.7396 15.0136 20.6991 16.1259 20.3227C18.561 19.4985 20.2894 17.1336 20.8056 13.9197C20.91 13.2692 20.9527 11.6263 20.879 11.0987C20.5505 8.75319 19.0265 6.74843 16.7361 5.64852C15.5319 5.07022 14.4458 4.8385 12.9384 4.83822C10.8627 4.83785 8.95838 5.38353 7.44517 6.41227C6.93058 6.76211 5.8417 7.81794 5.49436 8.30384C4.7171 9.39119 4.24341 10.5323 4.07919 11.713C4.00323 12.2586 4.01419 13.3076 4.10187 13.8501C4.31806 15.1944 4.92037 16.3722 5.6985 16.9713C6.09595 17.2773 6.59526 17.5235 6.81848 17.5235C7.0857 17.5235 7.16318 17.3997 7.35453 16.6694C7.55976 15.8862 7.54804 15.7847 7.19617 15.285C6.57712 14.4056 6.37212 13.4364 6.54042 12.1848C6.72789 10.7908 7.30427 9.63589 8.29291 8.67311C9.33285 7.66039 10.4246 7.17709 11.9982 7.03292C14.6135 6.79329 16.6869 7.86948 17.489 9.88286C17.7471 10.5305 17.8144 10.9742 17.8098 11.9889C17.8023 13.8966 17.3803 15.4793 16.5384 16.776C16.0062 17.5957 15.2653 18.1788 14.5338 18.3538C14.2016 18.4333 13.5055 18.4254 13.2229 18.339C12.4812 18.1122 11.9346 17.452 11.8751 16.7111C11.8411 16.2946 11.894 16.0543 12.3809 14.4028C12.8642 12.7622 12.9302 12.4979 12.9934 11.9507C13.1056 10.9779 12.7571 10.1864 12.0671 9.84758C11.8199 9.72622 11.7367 9.71145 11.299 9.71145C10.8447 9.71145 10.7843 9.72316 10.4864 9.86988C10.0649 10.0774 9.7658 10.3463 9.48218 10.773C8.82639 11.7594 8.68621 13.378 9.14845 14.6252L9.27544 14.9676L8.46609 18.3884C8.02098 20.2698 7.61989 21.9965 7.57488 22.2254C7.5231 22.489 7.48379 23.0036 7.46792 23.6283L7.44146 24.6148L7.06804 24.4383C5.06062 23.49 3.28874 21.9234 2.00136 19.9585C0.900159 18.2778 0.296001 16.5923 0.0574752 14.5358C-0.0494854 13.6148 -0.00224137 11.9867 0.158389 11.0338C0.664354 8.03724 2.37595 5.16862 4.75977 3.32199C6.86456 1.69152 9.21587 0.807769 11.7851 0.681488C14.1367 0.565906 16.1672 0.98557 18.161 1.99922C20.5379 3.20767 22.4551 5.12484 23.6635 7.50178C24.6772 9.49557 25.0969 11.5261 24.9813 13.8777C24.9129 15.2688 24.657 16.4433 24.1117 17.8708C23.7538 18.8079 22.9187 20.1992 22.1554 21.1305C20.0085 23.75 16.6749 25.474 13.4534 25.6306C13.1571 25.6449 12.8045 25.6627 12.6698 25.6697C12.5352 25.6768 12.2717 25.6764 12.0832 25.6694Z" fill="#F7F7F7"/>
</svg>
