<svg width="25" height="26" viewBox="0 0 25 26" fill="none" xmlns="http://www.w3.org/2000/svg">
<path d="M3.77953e-06 25.9863C3.77953e-06 25.9731 2.18999 23.4171 4.86664 20.306C7.75395 16.95 9.72525 14.6188 9.71352 14.5742C9.70218 14.5328 7.51265 11.3251 4.84688 7.44598C2.18109 3.56685 3.77953e-06 0.379131 3.77953e-06 0.362168C3.77953e-06 0.345197 1.6633 0.337109 3.69619 0.344177L7.39238 0.35699L10.3897 4.71992C12.0383 7.11953 13.501 9.24693 13.6403 9.44747L13.8935 9.81209L17.9606 5.08454L22.0277 0.356989L23.1084 0.343496C24.1381 0.33057 24.1854 0.334123 24.1129 0.418716C23.39 1.26248 15.3012 10.6744 15.1103 10.894L14.8437 11.2006L19.9219 18.5918L25 25.983L21.3387 25.9958C19.325 26.003 17.6543 26 17.6261 25.9894C17.5981 25.9784 16.0407 23.7341 14.1658 21.0016C12.2909 18.2691 10.7364 16.0392 10.7113 16.0462C10.6864 16.053 8.74458 18.2918 6.39641 21.021L2.12699 25.983L1.0635 25.9966C0.478571 26.0038 3.77953e-06 25.9993 3.77953e-06 25.9863ZM21.9963 24.3761C21.9638 24.2916 6.49813 2.15202 6.39949 2.04889C6.35243 1.99975 5.95495 1.9885 4.62796 1.99874L2.91704 2.01197L10.4364 12.7688C14.572 18.6851 18.1025 23.7345 18.2819 23.9896L18.6081 24.4535H20.317C21.8364 24.4535 22.0227 24.4448 21.9963 24.3761Z" fill="#F7F7F7"/>
</svg>
