<svg width="25" height="18" viewBox="0 0 25 18" fill="none" xmlns="http://www.w3.org/2000/svg">
<path d="M8.51707 17.8644C5.79191 17.7732 3.93269 17.6319 3.00587 17.4453C1.87496 17.2177 0.984544 16.4867 0.598956 15.4694C-0.0824549 13.6718 -0.214701 6.9155 0.369539 3.75535C0.563429 2.70617 0.888808 2.09947 1.56576 1.52425C2.08227 1.08532 2.60362 0.898601 3.6936 0.762122C5.53861 0.531117 7.87704 0.446343 12.4348 0.445322C16.3165 0.444532 18.0962 0.492453 20.0893 0.651835C22.3128 0.829624 22.9599 1.03155 23.7 1.77864C24.1723 2.25534 24.4381 2.7945 24.6042 3.61248C25.1975 6.53498 25.1065 13.2651 24.4454 15.3574C24.1359 16.3363 23.2597 17.1576 22.2513 17.4136C21.6139 17.5754 20.1315 17.7131 17.92 17.8159C16.3878 17.8872 10.1566 17.9193 8.51707 17.8644ZM14.8047 10.1863C15.7345 9.65122 16.4952 9.19262 16.4952 9.16715C16.495 9.10736 10.0447 5.38576 9.99282 5.41556C9.94784 5.44164 9.9384 12.8695 9.98526 12.9146C10.0004 12.9312 10.7129 12.5428 11.5655 12.0518C12.4182 11.5608 13.8749 10.7213 14.8047 10.1863Z" fill="#F7F7F7"/>
</svg>
