<svg width="17" height="17" viewBox="0 0 17 17" fill="none" xmlns="http://www.w3.org/2000/svg">
<path d="M7.79391 12.2822C8.69314 12.3733 9.3945 13.1333 9.3945 14.0566C9.39412 15.0408 8.59657 15.8386 7.61227 15.8388C6.68933 15.8386 5.92913 15.1371 5.83786 14.2382L5.82907 14.0566L5.83786 13.874C5.92914 12.9751 6.68933 12.2736 7.61227 12.2734L7.79391 12.2822ZM13.3408 12.2822C14.2399 12.3734 14.9414 13.1334 14.9414 14.0566C14.941 15.0407 14.1433 15.8385 13.1591 15.8388C12.236 15.8388 11.4761 15.1372 11.3847 14.2382L11.3759 14.0566L11.3847 13.874C11.476 12.9749 12.236 12.2734 13.1591 12.2734L13.3408 12.2822ZM7.61227 13.2734C7.18009 13.2736 6.82907 13.6243 6.82907 14.0566C6.82943 14.4616 7.13771 14.7948 7.5322 14.8349L7.61227 14.8388C8.01722 14.8387 8.35015 14.531 8.39059 14.1367L8.3945 14.0566C8.3945 13.6243 8.04452 13.2735 7.61227 13.2734ZM13.1591 13.2734C12.7268 13.2734 12.3759 13.6242 12.3759 14.0566C12.3763 14.4617 12.6844 14.7949 13.0791 14.8349L13.1591 14.8388C13.564 14.8385 13.8971 14.5309 13.9375 14.1367L13.9414 14.0566C13.9414 13.6244 13.5913 13.2737 13.1591 13.2734ZM3.6572 0.611267L4.05173 2.08295H16.832L16.6631 2.71185L15.0283 8.81342L14.9297 9.18353H5.95407L6.39255 10.8222H14.914V11.8222H5.62595L5.52634 11.4511L4.81931 8.81342L3.18454 2.71185L2.79099 1.24115H1.04489V0.24115H3.55759L3.6572 0.611267ZM5.68552 8.18353H14.1621L15.5283 3.08295H4.31931L5.68552 8.18353Z" fill="#3C3C3C"/>
</svg>
