<svg width="17" height="17" viewBox="0 0 17 17" fill="none" xmlns="http://www.w3.org/2000/svg">
<path d="M7.56784 12.2822C8.46706 12.3733 9.16843 13.1333 9.16843 14.0566C9.16805 15.0408 8.37049 15.8386 7.3862 15.8388C6.46326 15.8386 5.70306 15.1371 5.61179 14.2382L5.603 14.0566L5.61179 13.874C5.70306 12.9751 6.46326 12.2736 7.3862 12.2734L7.56784 12.2822ZM13.1147 12.2822C14.0138 12.3734 14.7153 13.1334 14.7153 14.0566C14.7149 15.0407 13.9173 15.8385 12.9331 15.8388C12.01 15.8388 11.25 15.1372 11.1587 14.2382L11.1499 14.0566L11.1587 13.874C11.25 12.9749 12.0099 12.2734 12.9331 12.2734L13.1147 12.2822ZM7.3862 13.2734C6.95401 13.2736 6.603 13.6243 6.603 14.0566C6.60335 14.4616 6.91163 14.7948 7.30612 14.8349L7.3862 14.8388C7.79115 14.8387 8.12407 14.531 8.16452 14.1367L8.16843 14.0566C8.16843 13.6243 7.81844 13.2735 7.3862 13.2734ZM12.9331 13.2734C12.5007 13.2734 12.1499 13.6242 12.1499 14.0566C12.1502 14.4617 12.4583 14.7949 12.853 14.8349L12.9331 14.8388C13.3379 14.8385 13.671 14.5309 13.7114 14.1367L13.7153 14.0566C13.7153 13.6244 13.3652 13.2737 12.9331 13.2734ZM3.43112 0.611267L3.82565 2.08295H16.6059L16.437 2.71185L14.8022 8.81342L14.7036 9.18353H5.728L6.16647 10.8222H14.688V11.8222H5.39987L5.30026 11.4511L4.59323 8.81342L2.95847 2.71185L2.56491 1.24115H0.818817V0.24115H3.33151L3.43112 0.611267ZM5.45944 8.18353H13.936L15.3022 3.08295H4.09323L5.45944 8.18353Z" fill="white"/>
</svg>
