<svg width="16" height="17" viewBox="0 0 16 17" fill="none" xmlns="http://www.w3.org/2000/svg">
<path d="M9.86328 5.0593L9.97949 5.30246L10.2471 5.33859L14.5098 5.91086L11.3984 8.88156L11.2031 9.06808L11.252 9.33273L12.0225 13.5652L8.2373 11.5232L8 11.3952L7.7627 11.5232L3.97656 13.5652L4.74805 9.33273L4.79688 9.06808L4.60156 8.88156L1.48926 5.91086L5.75293 5.33859L6.02051 5.30246L6.13672 5.0593L8 1.18234L9.86328 5.0593Z" stroke="white"/>
<mask id="mask0_174_281" style="mask-type:alpha" maskUnits="userSpaceOnUse" x="0" y="0" width="16" height="15">
<path d="M9.86328 5.0593L9.97949 5.30246L10.2471 5.33859L14.5098 5.91086L11.3984 8.88156L11.2031 9.06808L11.252 9.33273L12.0225 13.5652L8.2373 11.5232L8 11.3952L7.7627 11.5232L3.97656 13.5652L4.74805 9.33273L4.79688 9.06808L4.60156 8.88156L1.48926 5.91086L5.75293 5.33859L6.02051 5.30246L6.13672 5.0593L8 1.18234L9.86328 5.0593Z" fill="white" stroke="white"/>
</mask>
<g mask="url(#mask0_174_281)">
<rect x="-3" y="0.527069" width="13" height="15" fill="white"/>
</g>
</svg>
