<svg width="17" height="16" viewBox="0 0 17 16" fill="none" xmlns="http://www.w3.org/2000/svg">
<g clip-path="url(#clip0_200_1275)">
<path d="M9.78125 0.000976562V2.26953L10.9922 1.05859L11.6992 1.76562L9.78125 3.68359V4.54199L11.6367 5.61328L12.334 5.21094L13.0576 2.50879L14.0244 2.76758L13.5586 4.50391L15.5771 3.33984L15.8271 3.77344L16.0762 4.20703L14.1113 5.34082L15.7656 5.78418L15.5068 6.75L12.8867 6.04785L12.1055 6.49902L12.0957 6.48145V9.56934L12.1045 9.55469L12.833 9.97559L15.5371 9.25098L15.7959 10.2168L14.0576 10.6816L16.0771 11.8477L15.8271 12.2812L15.5762 12.7139L13.6113 11.5791L14.0547 13.2334L13.0889 13.4922L12.3857 10.8721L11.6055 10.4219L11.6191 10.3965L9.78125 11.457V12.25L11.7607 14.2295L11.0537 14.9365L9.78125 13.6641V15.9951H9.28125L8.78027 15.9941V12.0352L8.7793 12.0361V10.6221L10.8711 9.41504V6.58691L8.7793 5.37793L8.78027 0H9.28027L9.78125 0.000976562Z" fill="#F7F7F7"/>
<path d="M7.2832 13.6494L6.69141 15.8574L5.72559 15.5986L6.31738 13.3906L7.2832 13.6494Z" fill="#F7F7F7"/>
<path d="M4.59277 12.3945L2.97656 14.0107L2.26953 13.3037L3.88574 11.6875L4.59277 12.3945Z" fill="#F7F7F7"/>
<path d="M7.7793 12.9238C6.65035 12.8092 5.58887 12.3105 4.7793 11.501C3.85111 10.5728 3.33015 9.31363 3.33008 8.00098C3.33008 6.68833 3.85118 5.42921 4.7793 4.50098C5.58891 3.69136 6.65027 3.19081 7.7793 3.07617V12.9238Z" fill="#F7F7F7"/>
<path d="M2.88965 9.96289L0.681641 10.5537L0.422852 9.58789L2.63086 8.99707L2.88965 9.96289Z" fill="#F7F7F7"/>
<path d="M2.88965 6.03906L2.63086 7.00488L0.422852 6.41309L0.681641 5.44727L2.88965 6.03906Z" fill="#F7F7F7"/>
<path d="M4.59277 3.60645L3.88574 4.31348L2.26953 2.69727L2.97656 1.99023L4.59277 3.60645Z" fill="#F7F7F7"/>
<path d="M7.2832 2.35156L6.31738 2.61035L5.72559 0.402344L6.69141 0.143555L7.2832 2.35156Z" fill="#F7F7F7"/>
</g>
<defs>
<clipPath id="clip0_200_1275">
<rect width="16" height="16" fill="white" transform="translate(0.25)"/>
</clipPath>
</defs>
</svg>
