<svg width="13" height="16" viewBox="0 0 13 16" fill="none" xmlns="http://www.w3.org/2000/svg">
<path fill-rule="evenodd" clip-rule="evenodd" d="M8.33139 7.85551e-05C8.90254 0.00328222 9.53588 0.102206 10.1126 0.225456C10.6928 0.34946 11.2354 0.502342 11.6316 0.624129C11.8302 0.685186 11.9941 0.739142 12.1079 0.777537C12.1644 0.796602 12.2088 0.81225 12.2395 0.822991C12.2549 0.828366 12.2672 0.832367 12.2755 0.835302C12.2796 0.836754 12.2827 0.838274 12.285 0.83909C12.2861 0.839486 12.2871 0.839803 12.2878 0.840037L12.6098 0.955566V9.96405L11.9734 9.75666L11.9725 9.75571C11.9713 9.75537 11.969 9.7555 11.9668 9.75477C11.9623 9.75329 11.9556 9.75096 11.9469 9.74814C11.9287 9.74222 11.9011 9.73275 11.8664 9.72162C11.797 9.69936 11.6969 9.668 11.5747 9.62977C11.3297 9.55305 10.996 9.45043 10.6429 9.34852C10.289 9.24639 9.91898 9.14575 9.59937 9.07106C9.47675 9.04241 9.36739 9.02175 9.27362 9.00382C9.10243 9.35705 8.87885 9.67359 8.58423 9.91954C8.03247 10.38 7.32507 10.5461 6.61549 10.5568C5.90396 10.5676 5.1437 10.4234 4.42989 10.214C3.46482 9.93092 2.53777 9.51283 1.85983 9.14113V16H0.890137V0.865605L1.58616 1.20083C2.41966 1.60318 3.7581 2.14687 5.0511 2.46692C5.46609 2.56964 5.86957 2.64374 6.24428 2.68757C6.23 2.54993 6.21693 2.39667 6.21208 2.23681C6.20341 1.94945 6.21648 1.62022 6.285 1.31257C6.35194 1.01224 6.48576 0.67193 6.76606 0.431895C7.17897 0.0786793 7.7866 -0.00291711 8.33139 7.85551e-05ZM1.85983 8.01709C2.43015 8.38413 3.5304 8.94022 4.70262 9.28412C5.36266 9.47774 6.02036 9.59583 6.60034 9.58715C7.1821 9.57837 7.6422 9.44287 7.96302 9.17522C8.24022 8.94378 8.4598 8.55811 8.6098 8.01993C8.75863 7.48573 8.82722 6.84183 8.83328 6.14778C8.84164 5.1827 8.72798 4.15579 8.57192 3.25669C8.56493 3.2617 8.55815 3.26785 8.55108 3.27279C8.07657 3.60476 7.45505 3.70635 6.83424 3.70082C6.20302 3.69513 5.50483 3.57817 4.81815 3.40821C3.7653 3.1476 2.6965 2.75035 1.85983 2.38927V8.01709ZM8.50374 0.977347C8.65363 1.07229 8.79844 1.17636 8.9204 1.29363C9.09713 1.46363 9.2704 1.70491 9.30676 2.0067C9.57212 3.1359 9.81555 4.69758 9.80297 6.15535C9.79718 6.82227 9.73618 7.48278 9.59464 8.07674C9.6693 8.09248 9.74496 8.1094 9.82002 8.12693C10.1627 8.20702 10.5507 8.31247 10.9119 8.4167C11.1749 8.49262 11.4265 8.56971 11.6401 8.63545V1.64496C11.556 1.61755 11.4577 1.58511 11.3475 1.55121C10.9683 1.43464 10.454 1.28965 9.90998 1.17337C9.42909 1.0706 8.93844 0.996443 8.50374 0.977347ZM7.23196 1.52375C7.18778 1.72229 7.17438 1.96243 7.18177 2.20745C7.18735 2.39118 7.20482 2.56755 7.22344 2.71597C7.5653 2.68336 7.82151 2.59977 7.99522 2.47829C8.30729 2.25982 8.34393 2.13558 8.34654 2.12317C8.34645 2.12277 8.34591 2.12131 8.34559 2.12033C8.34497 2.11837 8.34373 2.1151 8.3418 2.11086C8.33215 2.08985 8.30696 2.04915 8.24806 1.99249C8.1256 1.87476 7.92643 1.74908 7.66662 1.61465C7.53289 1.54546 7.39723 1.48035 7.26037 1.41674C7.2504 1.44879 7.24067 1.48465 7.23196 1.52375Z" fill="#F7F7F7"/>
</svg>
