<svg width="18" height="16" viewBox="0 0 18 16" fill="none" xmlns="http://www.w3.org/2000/svg">
<path d="M9.8667 1.78711L16.7515 13.7129L17.6177 15.2129H0.382324L1.24854 13.7129L8.13428 1.78711L9.00049 0.287109L9.8667 1.78711ZM3.84717 13.2129H14.1538L9.00049 4.28711L3.84717 13.2129ZM8.99561 11.5625C9.11597 11.5625 9.21798 11.6052 9.30225 11.6895C9.39253 11.7737 9.43797 11.8757 9.43799 11.9961C9.43799 12.1165 9.39258 12.2194 9.30225 12.3037C9.21804 12.3877 9.1158 12.4296 8.99561 12.4297C8.87518 12.4297 8.77229 12.388 8.68799 12.3037C8.60368 12.2194 8.56201 12.1165 8.56201 11.9961C8.56203 11.8759 8.60393 11.7737 8.68799 11.6895C8.7723 11.6051 8.87516 11.5625 8.99561 11.5625ZM9.33838 10.5596H8.66162V5.97949H9.33838V10.5596Z" fill="#FFD633"/>
</svg>
