<svg width="230" height="45" viewBox="0 0 230 45" fill="none" xmlns="http://www.w3.org/2000/svg">
<path d="M0.788086 1.79883L63.9349 1.80638L59.534 13.9232L57.7953 10.479L39.6871 10.4601L37.5971 16.1737L54.6408 16.17L51.1795 25.6795L34.1148 25.6801L27.8892 42.7849H2.50389L13.1224 13.5915C13.1224 13.5915 23.4204 12.0475 27.4281 10.4529C11.9719 10.5025 10.7809 10.4606 10.7809 10.4606L0.788086 1.79883Z" fill="white"/>
<path d="M58.6989 16.169C58.6989 16.169 63.2716 16.1678 67.9567 16.169C64.3411 26.6371 57.8064 37.1334 64.1566 37.3792C72.097 37.6865 75.3419 24.5249 78.6597 16.1031C87.5546 16.0842 87.1469 16.1031 87.1469 16.1031L80.0335 33.9962C80.0335 33.9962 77.4441 43.6281 63.0387 43.1864C51.08 42.8198 51.4267 38.9512 51.6346 35.9634C51.768 34.0452 58.6989 16.169 58.6989 16.169Z" fill="white"/>
<path d="M91.2694 16.3362H102.745L99.3241 19.9875L92.9999 38.2441H105.171L103.125 42.9821H80.6953L91.2694 16.3362Z" fill="white"/>
<path d="M116.258 16.3809H127.734L124.313 20.0322L117.989 38.2888H130.16L128.347 42.9399H105.917L116.258 16.3809Z" fill="white"/>
<path d="M135.418 16.3306H143.416L141.435 35.662L152.288 16.3622H161.851L159.148 34.7927L171.182 16.342H179.007L161.279 42.9864H150.325L152.51 28.0117L143.255 42.9725H132.996L135.418 16.3306Z" fill="white"/>
<path d="M183.764 16.3613L165.564 42.9522L175.71 42.9786C177.549 40.4073 177.822 39.0795 179.74 36.5323H189.447L190.651 43.0224L199.397 42.9846L193.459 16.3616L183.764 16.3613ZM187.484 22.3476L188.736 31.0058H182.457C184.341 27.8637 185.69 25.4791 187.484 22.3476Z" fill="white"/>
<path d="M200.494 16.1299H209.469L211.191 25.9656L220.237 16.1606H229.212L213.001 32.4817L209.117 42.8246L201.138 42.8398L205.096 31.9897L200.494 16.1299Z" fill="white"/>
</svg>
