<?xml version="1.0" encoding="UTF-8" standalone="no"?>
<!-- Created with Inkscape (http://www.inkscape.org/) -->

<svg
   width="230"
   height="45"
   viewBox="0 0 60.854165 11.90625"
   version="1.1"
   id="svg1"
   inkscape:version="1.4.2 (f4327f4, 2025-05-13)"
   sodipodi:docname="Fullway-Correct-Logo.svg"
   xmlns:inkscape="http://www.inkscape.org/namespaces/inkscape"
   xmlns:sodipodi="http://sodipodi.sourceforge.net/DTD/sodipodi-0.dtd"
   xmlns="http://www.w3.org/2000/svg"
   xmlns:svg="http://www.w3.org/2000/svg">
  <sodipodi:namedview
     id="namedview1"
     pagecolor="#ffffff"
     bordercolor="#000000"
     borderopacity="0.25"
     inkscape:showpageshadow="2"
     inkscape:pageopacity="0.0"
     inkscape:pagecheckerboard="0"
     inkscape:deskcolor="#d1d1d1"
     inkscape:document-units="px"
     inkscape:zoom="4.0668163"
     inkscape:cx="120.73326"
     inkscape:cy="66.513946"
     inkscape:window-width="1920"
     inkscape:window-height="1009"
     inkscape:window-x="-8"
     inkscape:window-y="-8"
     inkscape:window-maximized="1"
     inkscape:current-layer="layer1" />
  <defs
     id="defs1" />
  <g
     inkscape:label="Layer 1"
     inkscape:groupmode="layer"
     id="layer1">
    <g
       id="g10"
       transform="translate(-122.02719,-225.69)">
      <path
         style="fill:#000000;stroke-width:0.3;paint-order:markers stroke fill"
         d="m 122.23568,226.16594 16.7076,0.002 -1.16441,3.20592 -0.46004,-0.9113 -4.79112,-0.005 -0.55298,1.51174 4.5095,-0.001 -0.91583,2.51606 -4.51503,1.6e-4 -1.64718,4.52566 h -6.71654 l 2.80947,-7.7241 c 0,0 2.72469,-0.40851 3.78507,-0.8304 -4.08947,0.0131 -4.40457,0.002 -4.40457,0.002 z"
         id="path1-6-5"
         sodipodi:nodetypes="ccccccccccccccc" />
      <path
         style="fill:#000000;stroke-width:0.3;paint-order:markers stroke fill"
         d="m 137.5579,229.96805 c 0,0 1.20986,-3.1e-4 2.44946,0 -0.95663,2.76968 -2.68559,5.54683 -1.00544,5.61188 2.10089,0.0813 2.95944,-3.40103 3.83728,-5.6293 2.35343,-0.005 2.24558,0 2.24558,0 l -1.88209,4.7342 c 0,0 -0.68511,2.54844 -4.49654,2.43158 -3.16409,-0.097 -3.07236,-1.12057 -3.01736,-1.91111 0.0353,-0.50751 1.86911,-5.23725 1.86911,-5.23725 z"
         id="path2-1-1"
         sodipodi:nodetypes="scscccsss" />
      <path
         style="fill:#000000;stroke-width:0.3;paint-order:markers stroke fill"
         d="m 146.17548,230.0123 h 3.03625 l -0.9051,0.96608 -1.67327,4.83039 h 3.22026 l -0.54138,1.2536 h -5.93448 z"
         id="path3-4-7"
         sodipodi:nodetypes="cccccccc" />
      <path
         style="fill:#000000;stroke-width:0.3;paint-order:markers stroke fill"
         d="m 152.78722,230.02412 h 3.03625 l -0.9051,0.96608 -1.67327,4.83039 h 3.22026 l -0.47984,1.2306 h -5.93448 z"
         id="path3-1-2-1"
         sodipodi:nodetypes="cccccccc" />
      <path
         style="fill:#000000;stroke-width:0.3;paint-order:markers stroke fill"
         d="m 157.85639,230.01079 h 2.11617 l -0.52419,5.11478 2.87166,-5.10641 h 2.53021 l -0.71525,4.87639 3.18413,-4.88173 h 2.07017 l -4.69057,7.04966 h -2.89823 l 0.57828,-3.96207 -2.44889,3.95839 h -2.71422 z"
         id="path4-3-1"
         sodipodi:nodetypes="cccccccccccccc" />
      <path
         id="path5-2-5"
         style="fill:#000000;stroke-width:0.3;paint-order:markers stroke fill"
         d="m 170.64815,230.01892 -4.8153,7.03549 2.6844,0.007 c 0.48658,-0.68034 0.55867,-1.03163 1.06631,-1.70559 h 2.56832 l 0.31836,1.71718 2.31428,-0.01 -1.57121,-7.04401 z m 0.98437,1.58388 0.33113,2.29082 h -1.66139 c 0.49849,-0.83135 0.85544,-1.46229 1.33026,-2.29082 z"
         sodipodi:nodetypes="ccccccccccccc" />
      <path
         style="fill:#000000;stroke-width:0.3;paint-order:markers stroke fill"
         d="m 175.07457,229.95771 h 2.37466 l 0.45547,2.60236 2.39351,-2.59423 h 2.37466 l -4.28912,4.3183 -1.02778,2.73655 -2.11105,0.004 1.04719,-2.87074 z"
         id="path6-2-2"
         sodipodi:nodetypes="cccccccccc" />
    </g>
  </g>
</svg>
