<svg width="492" height="24" viewBox="0 0 492 24" fill="none" xmlns="http://www.w3.org/2000/svg">
<g clip-path="url(#clip0_363_6154)">
<path d="M30.6219 20.0879C30.6132 20.1178 29.6063 23.5118 24.119 23.3555C19.5438 23.2251 19.6762 21.8494 19.7557 20.7871C19.8068 20.1051 22.4589 13.749 22.4589 13.749C22.4797 13.749 24.2191 13.7486 26.0009 13.749C24.6175 17.471 22.1173 21.2025 24.5468 21.29C27.5848 21.3993 28.8262 16.72 30.0956 13.7256C33.0464 13.7198 33.3217 13.7243 33.3427 13.7256L30.6219 20.0879ZM76.2909 23.2832L72.9442 23.2969L72.4843 20.9893H68.7704C68.0363 21.8949 67.932 22.367 67.2284 23.2812L63.3466 23.2715L70.3094 13.8174H74.0194L76.2909 23.2832ZM54.1141 20.6797L58.2665 13.8174H61.9257L60.8915 20.3711L65.496 13.8105H68.4891L61.7069 23.2842H57.5155L58.3514 17.96L54.8104 23.2793H50.8856L51.8114 13.8066H54.8719L54.1141 20.6797ZM38.0018 15.1064L35.5829 21.5977H40.2391L39.4559 23.2822H30.8749L34.9208 13.8086H39.3114L38.0018 15.1064ZM47.5634 15.123L45.1434 21.6143H49.8007L49.1063 23.2676H40.5243L44.4813 13.8242H48.8719L47.5634 15.123ZM80.8036 17.2324L84.2645 13.7461H87.6981L81.496 19.5488L80.0096 23.2266L76.9569 23.2314L78.4716 19.374L76.7108 13.7354H80.1444L80.8036 17.2324ZM24.4618 8.64258L22.7782 12.9502L22.1132 11.7256L15.1844 11.7188L14.3846 13.751L20.9061 13.749L19.5819 17.1309H13.0526L10.6708 23.2129H0.957886L5.02039 12.833C5.02039 12.833 8.96046 12.2837 10.494 11.7168C4.61737 11.7343 4.13072 11.7199 4.12488 11.7197L0.301636 8.63965L24.4618 8.64258ZM71.7333 15.9463C71.0468 17.0595 70.5302 17.9073 69.8094 19.0244H72.2118L71.7333 15.9463Z" fill="black"/>
</g>
<path d="M101.232 18.4L98.384 12.816H101.632L103.344 16.16L106.464 12.816H109.712L104.48 18.4L107.344 24H104.096L102.384 20.656L99.248 24H96L101.232 18.4Z" fill="black"/>
<path d="M134.272 1.408H136.344C136.931 1.408 137.387 1.54667 137.712 1.824C138.043 2.10133 138.208 2.512 138.208 3.056C138.208 3.60533 138.045 4.016 137.72 4.288C137.395 4.56 136.936 4.696 136.344 4.696H134.896V7H134.272V1.408ZM136.296 4.168C136.696 4.168 137.011 4.088 137.24 3.928C137.469 3.76267 137.584 3.472 137.584 3.056C137.584 2.63467 137.469 2.344 137.24 2.184C137.011 2.01867 136.696 1.936 136.296 1.936H134.896V4.168H136.296ZM140.537 7.12C140.121 7.12 139.75 7.03733 139.425 6.872C139.105 6.70667 138.854 6.472 138.673 6.168C138.497 5.85867 138.409 5.49867 138.409 5.088C138.409 4.68267 138.5 4.32533 138.681 4.016C138.862 3.70667 139.113 3.46667 139.433 3.296C139.758 3.12533 140.126 3.04 140.537 3.04C140.948 3.04 141.313 3.12533 141.633 3.296C141.958 3.46667 142.212 3.70667 142.393 4.016C142.574 4.32533 142.665 4.68267 142.665 5.088C142.665 5.49867 142.574 5.85867 142.393 6.168C142.217 6.472 141.966 6.70667 141.641 6.872C141.321 7.03733 140.953 7.12 140.537 7.12ZM140.537 6.632C140.996 6.632 141.361 6.49333 141.633 6.216C141.91 5.93333 142.049 5.55733 142.049 5.088C142.049 4.61333 141.91 4.23733 141.633 3.96C141.361 3.67733 140.996 3.536 140.537 3.536C140.078 3.536 139.71 3.67733 139.433 3.96C139.161 4.23733 139.025 4.61333 139.025 5.088C139.025 5.55733 139.161 5.93333 139.433 6.216C139.71 6.49333 140.078 6.632 140.537 6.632ZM142.94 3.16H143.58L144.532 6.256L145.468 3.16H146.052L146.996 6.256L147.94 3.16H148.588L147.356 7H146.724L145.764 3.872L144.804 7H144.164L142.94 3.16ZM151.367 7.12C150.669 7.12 150.122 6.94133 149.727 6.584C149.338 6.22667 149.143 5.728 149.143 5.088C149.143 4.45867 149.319 3.96 149.671 3.592C150.023 3.224 150.525 3.04 151.175 3.04C151.613 3.04 151.983 3.12533 152.287 3.296C152.591 3.46133 152.821 3.69067 152.975 3.984C153.13 4.27733 153.207 4.61067 153.207 4.984V5.32H149.719C149.741 5.75733 149.901 6.08533 150.199 6.304C150.503 6.52267 150.914 6.632 151.431 6.632C151.682 6.632 151.927 6.61067 152.167 6.568C152.413 6.52 152.631 6.456 152.823 6.376V6.896C152.663 6.96 152.445 7.01333 152.167 7.056C151.895 7.09867 151.629 7.12 151.367 7.12ZM152.631 4.88C152.621 4.464 152.493 4.136 152.247 3.896C152.002 3.656 151.642 3.536 151.167 3.536C150.703 3.536 150.349 3.66133 150.103 3.912C149.858 4.15733 149.73 4.48 149.719 4.88H152.631ZM154.17 3.16H154.77V3.912C155.08 3.41067 155.658 3.16 156.506 3.16V3.656C155.578 3.656 155.005 3.96267 154.786 4.576V7H154.17V3.16ZM159.125 7.12C158.426 7.12 157.88 6.94133 157.485 6.584C157.096 6.22667 156.901 5.728 156.901 5.088C156.901 4.45867 157.077 3.96 157.429 3.592C157.781 3.224 158.282 3.04 158.933 3.04C159.37 3.04 159.741 3.12533 160.045 3.296C160.349 3.46133 160.578 3.69067 160.733 3.984C160.888 4.27733 160.965 4.61067 160.965 4.984V5.32H157.477C157.498 5.75733 157.658 6.08533 157.957 6.304C158.261 6.52267 158.672 6.632 159.189 6.632C159.44 6.632 159.685 6.61067 159.925 6.568C160.17 6.52 160.389 6.456 160.581 6.376V6.896C160.421 6.96 160.202 7.01333 159.925 7.056C159.653 7.09867 159.386 7.12 159.125 7.12ZM160.389 4.88C160.378 4.464 160.25 4.136 160.005 3.896C159.76 3.656 159.4 3.536 158.925 3.536C158.461 3.536 158.106 3.66133 157.861 3.912C157.616 4.15733 157.488 4.48 157.477 4.88H160.389ZM163.776 7.12C163.398 7.12 163.056 7.03733 162.752 6.872C162.448 6.70667 162.208 6.46933 162.032 6.16C161.856 5.85067 161.768 5.49333 161.768 5.088C161.768 4.688 161.854 4.33333 162.024 4.024C162.2 3.70933 162.44 3.46667 162.744 3.296C163.054 3.12533 163.398 3.04 163.776 3.04C164.144 3.04 164.47 3.10667 164.752 3.24C165.04 3.368 165.27 3.55733 165.44 3.808V1.088H166.056V7H165.456V6.328C165.254 6.59467 165.014 6.79467 164.736 6.928C164.464 7.056 164.144 7.12 163.776 7.12ZM163.904 6.632C164.272 6.632 164.592 6.53867 164.864 6.352C165.142 6.16 165.334 5.89867 165.44 5.568V4.608C165.339 4.27733 165.15 4.016 164.872 3.824C164.6 3.632 164.278 3.536 163.904 3.536C163.622 3.536 163.363 3.60267 163.128 3.736C162.899 3.864 162.718 4.04533 162.584 4.28C162.451 4.51467 162.384 4.784 162.384 5.088C162.384 5.392 162.451 5.66133 162.584 5.896C162.718 6.13067 162.899 6.312 163.128 6.44C163.363 6.568 163.622 6.632 163.904 6.632ZM172.497 7.12C172.129 7.12 171.807 7.056 171.529 6.928C171.257 6.79467 171.02 6.59467 170.817 6.328V7H170.217V1.088H170.833V3.808C170.999 3.55733 171.231 3.368 171.529 3.24C171.828 3.10667 172.151 3.04 172.497 3.04C172.876 3.04 173.217 3.12533 173.521 3.296C173.831 3.46667 174.071 3.70933 174.241 4.024C174.417 4.33333 174.505 4.688 174.505 5.088C174.505 5.49333 174.417 5.85067 174.241 6.16C174.065 6.46933 173.825 6.70667 173.521 6.872C173.217 7.03733 172.876 7.12 172.497 7.12ZM172.369 6.632C172.652 6.632 172.908 6.568 173.137 6.44C173.372 6.312 173.556 6.13067 173.689 5.896C173.823 5.66133 173.889 5.392 173.889 5.088C173.889 4.784 173.823 4.51467 173.689 4.28C173.556 4.04533 173.372 3.864 173.137 3.736C172.908 3.60267 172.652 3.536 172.369 3.536C172.007 3.536 171.684 3.632 171.401 3.824C171.124 4.016 170.935 4.27733 170.833 4.608V5.568C170.94 5.89867 171.129 6.16 171.401 6.352C171.679 6.53867 172.001 6.632 172.369 6.632ZM175.664 8.584C175.419 8.584 175.2 8.56 175.008 8.512V8.016C175.067 8.03733 175.149 8.056 175.256 8.072C175.368 8.088 175.461 8.096 175.536 8.096C175.717 8.096 175.864 8.048 175.976 7.952C176.088 7.856 176.189 7.696 176.28 7.472L176.488 6.976L174.784 3.16H175.44L176.816 6.264L178.088 3.16H178.744L176.968 7.512C176.819 7.88 176.643 8.14933 176.44 8.32C176.243 8.496 175.984 8.584 175.664 8.584Z" fill="#4F4F4F"/>
<g clip-path="url(#clip1_363_6154)">
<mask id="mask0_363_6154" style="mask-type:luminance" maskUnits="userSpaceOnUse" x="101" y="-3" width="167" height="38">
<path d="M101.449 -2.32307H267.975V34.3234H101.449V-2.32307Z" fill="white"/>
</mask>
<g mask="url(#mask0_363_6154)">
<path d="M207.35 11.2632C207.29 11.1674 207.296 11.0195 207.324 10.8971C207.483 10.1004 207.643 9.30397 207.801 8.50863C207.824 8.38447 207.877 8.2369 207.975 8.14112C208.072 8.04392 208.204 8.0166 208.3 8.01838H218.523C218.624 8.0166 218.74 8.04392 218.801 8.14112C218.86 8.2369 218.85 8.38589 218.827 8.50863C218.668 9.30397 218.508 10.1004 218.349 10.8971C218.323 11.0181 218.273 11.1674 218.175 11.2632C218.076 11.3604 217.951 11.3856 217.849 11.3856H215.143C215.043 11.3856 214.916 11.4126 214.819 11.508C214.72 11.6052 214.669 11.7549 214.645 11.8759C213.851 15.8366 213.107 19.5504 212.314 23.5107C212.29 23.6349 212.239 23.7814 212.14 23.8768C212.043 23.974 211.916 23.9992 211.815 23.9992H208.608C208.509 23.9992 208.392 23.974 208.332 23.8768C208.272 23.7814 208.282 23.6331 208.305 23.5107C209.097 19.5504 209.842 15.8366 210.635 11.8759C210.661 11.7563 210.669 11.6052 210.608 11.508C210.548 11.4126 210.432 11.3856 210.332 11.3856H207.626C207.525 11.3856 207.409 11.3604 207.35 11.2632Z" fill="#F2A61D"/>
</g>
<mask id="mask1_363_6154" style="mask-type:luminance" maskUnits="userSpaceOnUse" x="101" y="-3" width="167" height="38">
<path d="M101.449 -2.32307H267.975V34.3234H101.449V-2.32307Z" fill="white"/>
</mask>
<g mask="url(#mask1_363_6154)">
<path d="M216.377 23.9022C216.315 23.8259 216.32 23.7067 216.336 23.611C217.134 19.5875 217.932 15.5629 218.729 11.5394C218.749 11.445 218.793 11.3244 218.887 11.2478C218.98 11.1715 219.103 11.1492 219.202 11.1506H222.366C222.463 11.1492 222.581 11.1715 222.643 11.2478C222.707 11.3244 222.704 11.4422 222.684 11.5394C221.886 15.5629 221.09 19.5875 220.293 23.611C220.273 23.7082 220.229 23.8259 220.136 23.9022C220.043 23.9788 219.917 23.9994 219.82 23.9994H216.655C216.557 23.9994 216.44 23.9788 216.377 23.9022Z" fill="#F2A61D"/>
</g>
<mask id="mask2_363_6154" style="mask-type:luminance" maskUnits="userSpaceOnUse" x="101" y="-3" width="167" height="38">
<path d="M101.449 -2.32308H267.975V34.3234H101.449V-2.32308Z" fill="white"/>
</mask>
<g mask="url(#mask2_363_6154)">
<path d="M227.949 13.9141C227.856 13.9904 227.812 14.1085 227.792 14.2057C227.699 14.6747 227.606 15.1426 227.513 15.6123C227.495 15.7091 227.492 15.8255 227.554 15.9018C227.617 15.9784 227.732 15.999 227.832 15.999H229.117C229.355 16.0036 229.584 15.9167 229.758 15.7567C229.915 15.6166 230.022 15.4296 230.062 15.2235C230.104 15.0142 230.146 14.8035 230.187 14.5942C230.226 14.3984 230.23 14.1635 230.104 14.0113C229.979 13.8588 229.747 13.8184 229.549 13.8184H228.265C228.166 13.8184 228.041 13.8379 227.949 13.9141ZM222.063 23.9023C221.989 23.8246 221.955 23.7171 221.972 23.6111C222.77 19.5876 223.567 15.5626 224.365 11.5391C224.385 11.4419 224.429 11.3242 224.522 11.2479C224.639 11.1521 224.787 11.1507 224.838 11.1507C225.884 11.1507 228.857 11.1489 230.87 11.1507C231.024 11.1507 232.063 11.2372 232.77 11.5196C233.065 11.6381 233.364 11.7981 233.654 12.073C234.089 12.4856 234.265 12.9443 234.303 13.2281C234.333 13.4239 234.33 13.6225 234.296 13.8184C234.152 14.5445 234.007 15.2728 233.864 15.999C233.833 16.1441 233.644 16.7571 233.356 17.066C233.135 17.3023 232.862 17.4846 232.558 17.5999C232.785 17.7028 232.976 17.872 233.104 18.0838C233.286 18.3871 233.286 18.9075 233.239 19.1512C232.946 20.6412 232.514 22.8161 232.354 23.6111C232.344 23.6618 232.316 23.8055 232.199 23.9023C232.105 23.9786 231.98 23.9995 231.883 23.9995H228.718C228.669 23.9995 228.521 23.9995 228.44 23.9023C228.386 23.8338 228.375 23.7335 228.399 23.6111C228.419 23.5195 229.093 20.1165 229.129 19.9271C229.177 19.6862 229.192 19.5202 229.047 19.3453C228.933 19.2066 228.739 19.1526 228.492 19.1512H227.208C227.081 19.1498 226.973 19.181 226.892 19.2481C226.792 19.329 226.753 19.4425 226.735 19.5383C226.468 20.8998 226.075 22.8771 225.928 23.6111C225.918 23.6618 225.888 23.8055 225.771 23.9023C225.652 23.9995 225.504 23.9995 225.455 23.9995H222.29C222.205 23.9953 222.124 23.9608 222.063 23.9023Z" fill="#F2A61D"/>
</g>
<mask id="mask3_363_6154" style="mask-type:luminance" maskUnits="userSpaceOnUse" x="101" y="-3" width="167" height="38">
<path d="M101.449 -2.32307H267.975V34.3234H101.449V-2.32307Z" fill="white"/>
</mask>
<g mask="url(#mask3_363_6154)">
<path d="M234.387 22.8351C234.152 22.414 234.045 21.8159 234.151 21.2842C234.801 18.0021 235.69 13.5121 236.082 11.5394C236.092 11.49 236.121 11.345 236.239 11.2478C236.332 11.1715 236.455 11.1491 236.555 11.1506H245.404C245.503 11.1491 245.619 11.1715 245.681 11.2478C245.744 11.3244 245.742 11.4404 245.723 11.5394C245.597 12.1697 245.474 12.799 245.349 13.4298C245.329 13.527 245.285 13.6451 245.192 13.7196C245.099 13.7959 244.975 13.8168 244.876 13.8168H239.982C239.883 13.8168 239.759 13.8381 239.666 13.914C239.573 13.9903 239.528 14.107 239.509 14.2056C239.384 14.8363 239.259 15.4657 239.133 16.096C239.115 16.1932 239.112 16.3117 239.175 16.3876C239.237 16.4639 239.355 16.4834 239.452 16.4834H243.111C243.21 16.4834 243.327 16.5043 243.389 16.5806C243.452 16.6583 243.448 16.7764 243.43 16.8722L243.104 18.5204C243.084 18.6176 243.04 18.7357 242.947 18.812C242.854 18.8882 242.73 18.9077 242.631 18.9077H238.972C238.872 18.9077 238.749 18.9283 238.656 19.0049C238.563 19.0808 238.519 19.199 238.499 19.2958C238.391 19.846 238.388 19.8609 238.28 20.4111C238.221 20.7024 238.275 20.9447 238.391 21.0898C238.508 21.2345 238.74 21.3317 239.036 21.3317H243.386C243.483 21.3317 243.601 21.3526 243.663 21.4289C243.726 21.5052 243.725 21.6229 243.705 21.7201C243.579 22.3512 243.454 22.9802 243.329 23.6109C243.311 23.7067 243.267 23.8259 243.174 23.9022C243.056 23.998 242.908 23.998 242.858 23.9994C241.787 23.9994 238.74 24.0008 236.678 23.9994C235.824 23.9994 234.819 23.6109 234.387 22.8351Z" fill="#F2A61D"/>
</g>
<mask id="mask4_363_6154" style="mask-type:luminance" maskUnits="userSpaceOnUse" x="101" y="-3" width="167" height="38">
<path d="M101.449 -2.32307H267.975V34.3234H101.449V-2.32307Z" fill="white"/>
</mask>
<g mask="url(#mask4_363_6154)">
<path fill-rule="evenodd" clip-rule="evenodd" d="M123.307 15.9033C123.251 15.8335 123.24 15.7299 123.266 15.6121C123.536 14.2552 123.804 12.8965 124.073 11.5393C124.094 11.4212 124.144 11.3197 124.23 11.2477C124.347 11.1519 124.487 11.1505 124.546 11.1505C125.035 11.148 125.487 11.1505 125.93 11.1519C126.129 11.1519 126.313 11.2133 126.435 11.3449C126.577 11.5003 126.609 11.7156 126.568 11.9281C126.46 12.4613 125.943 15.0814 125.913 15.2251C125.868 15.4549 125.739 15.6611 125.552 15.8061C125.386 15.9331 125.18 16.002 124.969 16.0005H123.585C123.526 16.0005 123.386 15.9991 123.307 15.9033ZM117.767 23.9021C117.686 23.8053 117.715 23.6619 117.725 23.6112C118.201 21.2107 119.729 13.5003 120.743 8.3888C120.761 8.29338 120.812 8.1976 120.949 8.09721C121.025 8.03903 121.118 8.00462 121.216 8.00001C123.258 8.00001 125.31 8.00178 127.346 8.00001C129.104 8.00178 130.3 8.67118 130.649 9.79395C130.819 10.3392 130.728 10.8933 130.677 11.1519C130.527 11.8965 130.042 14.3687 129.716 16.0005C129.643 16.361 129.405 17.0587 129.062 17.5522C128.266 18.6938 126.861 19.1514 125.136 19.1514C124.41 19.1514 123.696 19.1514 122.959 19.1524C122.848 19.1556 122.738 19.1883 122.645 19.2482C122.541 19.3217 122.51 19.444 122.488 19.5398C122.215 20.8967 121.952 22.254 121.681 23.6109C121.663 23.7098 121.569 23.8351 121.475 23.9021C121.367 23.9819 121.306 23.9993 121.209 23.9993H118.043C117.917 23.9993 117.821 23.9695 117.767 23.9021Z" fill="black"/>
</g>
<mask id="mask5_363_6154" style="mask-type:luminance" maskUnits="userSpaceOnUse" x="101" y="-3" width="167" height="38">
<path d="M101.449 -2.32308H267.975V34.3234H101.449V-2.32308Z" fill="white"/>
</mask>
<g mask="url(#mask5_363_6154)">
<path fill-rule="evenodd" clip-rule="evenodd" d="M135.913 13.9157C135.82 13.9919 135.775 14.1086 135.755 14.2058C135.663 14.6748 135.57 15.1427 135.477 15.6121C135.459 15.7089 135.455 15.827 135.518 15.9033C135.58 15.9796 135.696 16.0005 135.795 16.0005H137.081C137.319 16.0037 137.548 15.9168 137.722 15.7568C137.879 15.6163 137.985 15.4297 138.025 15.225C138.068 15.0143 138.109 14.8032 138.15 14.5939C138.19 14.3985 138.193 14.1651 138.068 14.0129C137.943 13.8586 137.711 13.8185 137.513 13.8185H136.228C136.129 13.8185 136.004 13.8394 135.913 13.9157ZM130.027 23.9021C129.952 23.8244 129.919 23.7169 129.935 23.6112L132.329 11.5392C132.349 11.442 132.393 11.3253 132.485 11.2476C132.603 11.1522 132.75 11.1522 132.801 11.1522C133.848 11.1504 136.82 11.149 138.834 11.1522C138.988 11.1522 140.025 11.2374 140.733 11.5197C141.028 11.6379 141.327 11.7996 141.617 12.0731C142.053 12.4871 142.229 12.9444 142.267 13.2282C142.297 13.424 142.294 13.6226 142.259 13.8185C142.116 14.5446 141.971 15.2729 141.827 16.0005C141.797 16.1456 141.608 16.7586 141.32 17.0661C141.098 17.3021 140.825 17.4847 140.521 17.5997C140.749 17.7029 140.94 17.8718 141.068 18.0853C141.25 18.3886 141.25 18.909 141.202 19.1513C140.909 20.6413 140.478 22.8158 140.319 23.6112C140.308 23.6633 140.279 23.8066 140.162 23.9021C140.069 23.9787 139.944 23.9993 139.846 23.9993H136.682C136.633 23.9993 136.485 24.001 136.404 23.9021C136.349 23.8354 136.339 23.7336 136.363 23.6112C136.382 23.5196 137.055 20.118 137.093 19.9268C137.14 19.6863 137.155 19.5203 137.011 19.3454C136.896 19.2063 136.703 19.1524 136.456 19.1513H135.17C135.045 19.1513 134.937 19.1811 134.854 19.2482C134.755 19.3305 134.717 19.444 134.699 19.5398C134.432 20.8999 134.038 22.8772 133.892 23.6112C133.881 23.6633 133.852 23.8066 133.735 23.9021C133.616 24.001 133.468 23.9993 133.419 23.9993H130.255C130.169 23.9968 130.088 23.9624 130.027 23.9021Z" fill="black"/>
</g>
<mask id="mask6_363_6154" style="mask-type:luminance" maskUnits="userSpaceOnUse" x="101" y="-3" width="167" height="38">
<path d="M101.449 -2.32307H267.975V34.3234H101.449V-2.32307Z" fill="white"/>
</mask>
<g mask="url(#mask6_363_6154)">
<path fill-rule="evenodd" clip-rule="evenodd" d="M142.091 23.9022C142.029 23.8259 142.032 23.7067 142.051 23.611L144.443 11.5394C144.463 11.445 144.506 11.3255 144.599 11.2478C144.692 11.1715 144.816 11.1506 144.914 11.152H148.079C148.177 11.1506 148.295 11.1729 148.357 11.2478C148.419 11.3244 148.417 11.4422 148.398 11.5394L146.005 23.611C145.985 23.7082 145.941 23.8259 145.848 23.9022C145.755 23.9788 145.631 23.9994 145.532 23.9994H142.369C142.27 23.9994 142.154 23.9788 142.091 23.9022Z" fill="black"/>
</g>
<mask id="mask7_363_6154" style="mask-type:luminance" maskUnits="userSpaceOnUse" x="101" y="-3" width="167" height="38">
<path d="M101.449 -2.32309H267.975V34.3234H101.449V-2.32309Z" fill="white"/>
</mask>
<g mask="url(#mask7_363_6154)">
<path fill-rule="evenodd" clip-rule="evenodd" d="M152.379 21.1374C152.304 21.048 152.239 20.8473 152.268 20.7007C152.699 18.5205 153.075 16.6283 153.506 14.448C153.535 14.3029 153.682 14.1007 153.791 14.0113C153.901 13.9202 154.127 13.8169 154.275 13.8169H155.461C155.609 13.8169 155.794 13.9202 155.867 14.0113C155.942 14.1007 156.008 14.3029 155.978 14.448C155.547 16.6283 155.172 18.5205 154.739 20.7007C154.709 20.8473 154.565 21.048 154.455 21.1374C154.345 21.2286 154.119 21.3318 153.971 21.3318H152.785C152.637 21.3318 152.452 21.2286 152.379 21.1374ZM148.272 22.3989C148.16 22.0743 148.111 21.716 148.188 21.3318C148.683 18.827 149.18 16.3218 149.676 13.8169C149.751 13.4374 149.943 13.0383 150.195 12.702C150.973 11.6576 152.995 11.1507 154.16 11.1507H156.633C158.117 11.1507 159.5 11.5782 159.933 12.702C160.063 13.0383 160.139 13.4132 160.059 13.8169C159.563 16.3218 159.065 18.827 158.57 21.3318C158.504 21.6589 158.265 22.0761 158.011 22.3989C157.124 23.5348 155.432 23.9977 154.086 23.9977H151.613C150.079 23.9977 148.647 23.4841 148.272 22.3989Z" fill="black"/>
</g>
<mask id="mask8_363_6154" style="mask-type:luminance" maskUnits="userSpaceOnUse" x="101" y="-3" width="167" height="38">
<path d="M101.449 -2.32308H267.975V34.3234H101.449V-2.32308Z" fill="white"/>
</mask>
<g mask="url(#mask8_363_6154)">
<path fill-rule="evenodd" clip-rule="evenodd" d="M165.823 13.9157C165.73 13.9919 165.686 14.1086 165.668 14.2058C165.575 14.6748 165.482 15.1427 165.389 15.6121C165.369 15.7089 165.367 15.827 165.43 15.9033C165.493 15.9796 165.608 16.0005 165.708 16.0005H166.992C167.23 16.0037 167.46 15.9168 167.634 15.7568C167.791 15.6163 167.898 15.4297 167.937 15.225C167.979 15.0143 168.02 14.8032 168.063 14.5939C168.101 14.3985 168.105 14.1651 167.98 14.0129C167.855 13.8586 167.622 13.8185 167.425 13.8185H166.14C166.04 13.8185 165.917 13.8394 165.823 13.9157ZM159.938 23.9021C159.865 23.8244 159.831 23.7169 159.848 23.6112L162.241 11.5392C162.259 11.442 162.305 11.3253 162.398 11.2476C162.515 11.1522 162.662 11.1522 162.713 11.1522C163.759 11.1504 166.733 11.149 168.745 11.1522C168.9 11.1522 169.937 11.2374 170.645 11.5197C170.941 11.6379 171.24 11.7996 171.528 12.0731C171.964 12.4871 172.14 12.9444 172.179 13.2282C172.208 13.424 172.207 13.6226 172.171 13.8185C172.027 14.5446 171.883 15.2729 171.738 16.0005C171.708 16.1456 171.519 16.7586 171.231 17.0661C171.011 17.3021 170.738 17.4847 170.433 17.5997C170.661 17.7029 170.852 17.8735 170.979 18.0853C171.16 18.3886 171.16 18.909 171.115 19.1513C170.822 20.6413 170.388 22.8158 170.23 23.6112C170.219 23.6633 170.19 23.8066 170.073 23.9021C169.98 23.9787 169.856 23.9993 169.757 23.9993H166.594C166.545 23.9993 166.397 24.001 166.316 23.9021C166.26 23.8354 166.249 23.7336 166.275 23.6112C166.293 23.5196 166.967 20.118 167.006 19.9268C167.053 19.6863 167.067 19.5203 166.923 19.3454C166.809 19.2063 166.615 19.1524 166.368 19.1513H165.082C164.958 19.1513 164.849 19.1811 164.766 19.2482C164.667 19.3305 164.63 19.444 164.61 19.5398C164.342 20.8999 163.95 22.8772 163.803 23.6112C163.792 23.6633 163.765 23.8066 163.647 23.9021C163.527 24.001 163.38 23.9993 163.33 23.9993H160.167C160.081 23.9968 160 23.9624 159.938 23.9021Z" fill="black"/>
</g>
<mask id="mask9_363_6154" style="mask-type:luminance" maskUnits="userSpaceOnUse" x="101" y="-3" width="167" height="38">
<path d="M101.449 -2.32307H267.975V34.3234H101.449V-2.32307Z" fill="white"/>
</mask>
<g mask="url(#mask9_363_6154)">
<path fill-rule="evenodd" clip-rule="evenodd" d="M172.001 23.9022C171.938 23.8259 171.943 23.7067 171.96 23.611C172.757 19.5875 173.555 15.5643 174.353 11.5394C174.372 11.445 174.417 11.3255 174.508 11.2478C174.601 11.1715 174.726 11.1506 174.824 11.152H177.989C178.086 11.1506 178.204 11.1729 178.266 11.2478C178.329 11.3244 178.326 11.4422 178.308 11.5394L175.914 23.611C175.896 23.7082 175.85 23.8259 175.758 23.9022C175.664 23.9788 175.541 23.9994 175.441 23.9994H172.279C172.181 23.9994 172.064 23.9788 172.001 23.9022Z" fill="black"/>
</g>
<mask id="mask10_363_6154" style="mask-type:luminance" maskUnits="userSpaceOnUse" x="101" y="-3" width="167" height="38">
<path d="M101.449 -2.32308H267.975V34.3234H101.449V-2.32308Z" fill="white"/>
</mask>
<g mask="url(#mask10_363_6154)">
<path fill-rule="evenodd" clip-rule="evenodd" d="M179.113 13.7197C179.048 13.6435 179.05 13.5253 179.072 13.4285L179.445 11.5377C179.464 11.4391 179.509 11.3227 179.602 11.2461C179.695 11.1698 179.822 11.1479 179.918 11.1489H190.004C190.103 11.1479 190.218 11.1702 190.282 11.2461C190.344 11.3227 190.34 11.4405 190.323 11.5377L189.948 13.4285C189.927 13.5253 189.884 13.6435 189.79 13.7197C189.698 13.796 189.574 13.8155 189.475 13.8155H186.806C186.707 13.8155 186.582 13.8365 186.49 13.9127C186.397 13.9886 186.353 14.1068 186.333 14.204C185.711 17.3396 185.09 20.4751 184.469 23.6096C184.449 23.7083 184.405 23.8246 184.312 23.9009C184.219 23.9772 184.096 23.9977 183.996 23.9977H180.832C180.734 23.9977 180.617 23.9772 180.554 23.9009C180.491 23.8246 180.496 23.7065 180.513 23.6096C181.135 20.4741 181.756 17.3396 182.378 14.204C182.398 14.1085 182.399 13.9886 182.337 13.9127C182.274 13.8365 182.157 13.8155 182.059 13.8155H179.389C179.291 13.8155 179.176 13.796 179.113 13.7197Z" fill="black"/>
</g>
<mask id="mask11_363_6154" style="mask-type:luminance" maskUnits="userSpaceOnUse" x="101" y="-3" width="167" height="38">
<path d="M101.449 -2.32307H267.975V34.3234H101.449V-2.32307Z" fill="white"/>
</mask>
<g mask="url(#mask11_363_6154)">
<path fill-rule="evenodd" clip-rule="evenodd" d="M193.793 23.9022C193.717 23.8259 193.68 23.7184 193.694 23.611C194.008 21.8011 194.321 19.9912 194.634 18.1795C193.465 15.9826 192.293 13.7856 191.124 11.5887C191.07 11.4975 191.07 11.3868 191.124 11.2971C191.18 11.2045 191.305 11.1612 191.468 11.152H194.831C194.954 11.152 195.222 11.185 195.326 11.2478C195.405 11.2985 195.472 11.3645 195.523 11.4422C196.133 12.5586 196.742 13.6735 197.352 14.7885C198.423 13.6735 199.544 12.5093 200.615 11.3943C200.697 11.3063 200.754 11.2492 200.862 11.1999C200.987 11.1449 201.109 11.152 201.208 11.152H204.473C204.662 11.1552 204.816 11.1956 204.867 11.2971C204.907 11.3762 204.899 11.5497 204.817 11.6366C202.741 13.8335 200.715 16.0333 198.638 18.2302C198.324 20.0405 197.961 21.8011 197.649 23.611C197.61 23.7248 197.544 23.8245 197.452 23.9022C197.351 23.9802 197.105 23.9994 197.007 23.9994H194.04C193.936 23.992 193.852 23.9607 193.793 23.9022Z" fill="black"/>
</g>
<mask id="mask12_363_6154" style="mask-type:luminance" maskUnits="userSpaceOnUse" x="101" y="-3" width="167" height="38">
<path d="M101.449 -2.32308H267.975V34.3234H101.449V-2.32308Z" fill="white"/>
</mask>
<g mask="url(#mask12_363_6154)">
<path d="M248.615 13.6091H249.081C249.263 13.6091 249.417 13.5708 249.539 13.4967C249.66 13.4225 249.722 13.3218 249.722 13.1969C249.722 13.0306 249.679 12.9128 249.593 12.8429C249.508 12.773 249.352 12.7368 249.127 12.7347H248.615V13.6091ZM248.615 14.0852V15.2828H248.068V12.2618H249.087C249.459 12.2618 249.749 12.3445 249.956 12.5109C250.162 12.6765 250.266 12.9064 250.266 13.2001C250.266 13.4609 250.136 13.662 249.878 13.8042C250.018 13.8805 250.116 13.9845 250.172 14.1168C250.227 14.2495 250.255 14.4137 250.255 14.6088C250.255 14.8046 250.26 14.9426 250.267 15.0231C250.276 15.1037 250.292 15.1714 250.317 15.2257V15.2828H249.754C249.723 15.2023 249.708 14.9721 249.708 14.5928C249.708 14.4126 249.668 14.2832 249.588 14.2037C249.508 14.1242 249.375 14.0852 249.189 14.0852H248.615ZM247.006 13.8149C247.006 14.2058 247.096 14.5705 247.276 14.9096C247.456 15.2477 247.712 15.5201 248.043 15.7248C248.374 15.9295 248.739 16.032 249.138 16.032C249.535 16.032 249.898 15.9306 250.228 15.727C250.558 15.5223 250.813 15.252 250.995 14.9128C251.176 14.5737 251.266 14.2079 251.266 13.8149C251.266 13.4215 251.176 13.0557 250.995 12.7187C250.813 12.3807 250.557 12.1114 250.226 11.9078C249.895 11.7056 249.532 11.6048 249.138 11.6048C248.754 11.6048 248.397 11.7013 248.067 11.8961C247.736 12.0901 247.478 12.3583 247.288 12.6985C247.1 13.0398 247.006 13.4119 247.006 13.8149ZM246.563 13.8149C246.563 13.3367 246.676 12.8926 246.902 12.4825C247.128 12.072 247.442 11.7499 247.842 11.5137C248.242 11.2785 248.674 11.1607 249.138 11.1607C249.602 11.1607 250.034 11.2785 250.435 11.5137C250.835 11.7499 251.148 12.072 251.374 12.4825C251.6 12.8926 251.712 13.3367 251.712 13.8149C251.712 14.2981 251.598 14.7454 251.368 15.1565C251.139 15.567 250.825 15.8901 250.427 16.1243C250.029 16.3588 249.6 16.4762 249.138 16.4762C248.671 16.4762 248.239 16.3577 247.842 16.1211C247.444 15.8838 247.131 15.5606 246.904 15.1512C246.677 14.7411 246.563 14.2959 246.563 13.8149Z" fill="#F2A61D"/>
</g>
</g>
<defs>
<clipPath id="clip0_363_6154">
<rect width="88" height="16" fill="white" transform="translate(0 8)"/>
</clipPath>
<clipPath id="clip1_363_6154">
<rect width="134" height="16" fill="white" transform="translate(117.712 8)"/>
</clipPath>
</defs>
</svg>
